<svg width="411" height="286" viewBox="0 0 411 286" fill="none" xmlns="http://www.w3.org/2000/svg">
<g clip-path="url(#clip0_11_39087)">
<path d="M81.889 286C127.115 286 163.778 283.215 163.778 279.78C163.778 276.344 127.115 273.559 81.889 273.559C36.663 273.559 0 276.344 0 279.78C0 283.215 36.663 286 81.889 286Z" fill="#E6E6E6"/>
<path d="M62.5945 63.4584C76.8456 57.3959 94.5957 61.237 111.93 63.9029C112.092 60.6745 114.047 56.7454 111.999 54.4931C109.511 51.7567 109.74 48.8816 111.237 45.9899C115.066 38.5953 109.58 30.7272 104.041 24.1849C102.792 22.7136 101.215 21.5576 99.4356 20.8108C97.6565 20.0639 95.7264 19.7473 93.802 19.8867L83.5413 20.6197C81.0444 20.7981 78.6616 21.7349 76.7116 23.3047C74.7617 24.8745 73.3376 27.0026 72.6299 29.404C70.1798 32.7367 68.8685 36.0602 69.6941 39.3663C66.0243 41.8746 65.4077 44.9024 67.0568 48.3156C68.4551 50.4648 68.4403 52.5567 66.9932 54.5908C65.0928 57.1841 63.6372 60.0757 62.6862 63.147L62.5945 63.4584Z" fill="#2F2E41"/>
<path d="M401.261 247.242H110.805C108.222 247.242 105.745 246.216 103.918 244.389C102.092 242.563 101.066 240.085 101.066 237.502C206.356 225.263 309.667 225.263 411 237.502C411 240.085 409.974 242.563 408.147 244.389C406.321 246.216 403.844 247.242 401.261 247.242Z" fill="#2F2E41"/>
<path d="M411 238.075L101.066 237.502L136.986 177.052L137.158 176.765V43.541C137.158 41.924 137.476 40.3227 138.095 38.8287C138.713 37.3347 139.62 35.9772 140.763 34.8338C141.907 33.6904 143.264 32.7834 144.758 32.1646C146.251 31.5459 147.852 31.2275 149.469 31.2276H360.878C362.494 31.2275 364.095 31.5459 365.589 32.1646C367.083 32.7834 368.44 33.6904 369.583 34.8338C370.727 35.9772 371.634 37.3347 372.252 38.8287C372.871 40.3227 373.189 41.924 373.189 43.541V177.682L411 238.075Z" fill="#3F3D56"/>
<path d="M149.188 39.8224C148.125 39.8236 147.106 40.2465 146.354 40.9984C145.602 41.7504 145.179 42.7699 145.178 43.8332V165.306C145.179 166.369 145.602 167.389 146.354 168.141C147.106 168.892 148.125 169.315 149.188 169.317H362.877C363.94 169.315 364.96 168.892 365.711 168.14C366.463 167.389 366.886 166.369 366.887 165.306V43.8332C366.886 42.7699 366.463 41.7504 365.711 40.9985C364.96 40.2466 363.94 39.8236 362.877 39.8224H149.188Z" fill="white"/>
<path d="M150.084 185.36C149.755 185.361 149.434 185.455 149.157 185.632C148.881 185.81 148.66 186.062 148.522 186.361L137.454 210.426C137.334 210.688 137.281 210.976 137.301 211.263C137.321 211.551 137.413 211.829 137.568 212.072C137.724 212.314 137.938 212.514 138.191 212.653C138.444 212.791 138.727 212.863 139.015 212.863H371.773C372.066 212.863 372.354 212.788 372.61 212.646C372.866 212.503 373.081 212.297 373.235 212.048C373.389 211.799 373.477 211.514 373.49 211.222C373.503 210.929 373.441 210.638 373.31 210.376L361.279 186.31C361.137 186.024 360.918 185.784 360.647 185.616C360.375 185.448 360.062 185.359 359.742 185.36H150.084Z" fill="#2F2E41"/>
<path d="M255.173 37.8169C256.597 37.8169 257.751 36.6625 257.751 35.2385C257.751 33.8145 256.597 32.6601 255.173 32.6601C253.75 32.6601 252.595 33.8145 252.595 35.2385C252.595 36.6625 253.75 37.8169 255.173 37.8169Z" fill="white"/>
<path d="M232.295 217.447C231.917 217.448 231.55 217.573 231.25 217.802C230.951 218.032 230.735 218.354 230.636 218.719L227.86 229.033C227.791 229.288 227.782 229.555 227.833 229.814C227.884 230.072 227.994 230.316 228.155 230.525C228.315 230.735 228.522 230.905 228.758 231.021C228.995 231.138 229.255 231.199 229.519 231.199H282.319C282.593 231.199 282.863 231.133 283.106 231.008C283.35 230.882 283.56 230.7 283.719 230.477C283.877 230.254 283.981 229.996 284.02 229.724C284.058 229.453 284.032 229.177 283.942 228.918L280.373 218.604C280.256 218.266 280.037 217.973 279.746 217.766C279.454 217.559 279.106 217.447 278.749 217.447H232.295Z" fill="#2F2E41"/>
<path d="M373.189 174.76V177.052H136.986L137.164 176.766V174.76H373.189Z" fill="#2F2E41"/>
<path d="M366.601 80.2177C388.749 80.2177 406.703 62.2604 406.703 40.1088C406.703 17.9573 388.749 0 366.601 0C344.453 0 326.498 17.9573 326.498 40.1088C326.498 62.2604 344.453 80.2177 366.601 80.2177Z" fill="#008001"/>
<path d="M383.215 57.5849H349.987C349.379 57.5843 348.797 57.3426 348.367 56.9129C347.938 56.4832 347.696 55.9006 347.695 55.2929V35.2385C347.696 34.6308 347.938 34.0482 348.367 33.6186C348.797 33.1889 349.379 32.9472 349.987 32.9466H383.215C383.822 32.9472 384.405 33.1889 384.834 33.6186C385.264 34.0482 385.506 34.6308 385.506 35.2385V55.2929C385.506 55.9006 385.264 56.4832 384.834 56.9129C384.405 57.3426 383.822 57.5843 383.215 57.5849ZM349.987 35.2385V55.2929H383.216L383.215 35.2385L349.987 35.2385Z" fill="white"/>
<path d="M376.913 35.2385H356.289V26.0708C356.289 19.4305 360.626 14.6111 366.601 14.6111C372.576 14.6111 376.913 19.4305 376.913 26.0708L376.913 35.2385ZM358.58 32.9466H374.621V26.0708C374.621 20.673 371.323 16.903 366.601 16.903C361.878 16.903 358.58 20.673 358.58 26.0708L358.58 32.9466Z" fill="white"/>
<path d="M366.601 46.9847C367.866 46.9847 368.892 45.9585 368.892 44.6927C368.892 43.4269 367.866 42.4008 366.601 42.4008C365.335 42.4008 364.309 43.4269 364.309 44.6927C364.309 45.9585 365.335 46.9847 366.601 46.9847Z" fill="white"/>
<path d="M338.606 128.114H173.46C172.649 128.113 171.872 127.791 171.298 127.217C170.725 126.644 170.402 125.867 170.401 125.056V84.0833C170.402 83.2724 170.725 82.4949 171.298 81.9215C171.872 81.3481 172.649 81.0255 173.46 81.0246H338.606C339.417 81.0255 340.194 81.3481 340.767 81.9215C341.341 82.4949 341.663 83.2724 341.664 84.0833V125.056C341.663 125.867 341.341 126.644 340.767 127.217C340.194 127.791 339.417 128.113 338.606 128.114ZM173.46 82.2481C172.973 82.2486 172.507 82.4422 172.163 82.7862C171.819 83.1303 171.625 83.5968 171.625 84.0833V125.056C171.625 125.542 171.819 126.009 172.163 126.353C172.507 126.697 172.973 126.89 173.46 126.891H338.606C339.092 126.89 339.559 126.697 339.903 126.353C340.247 126.009 340.44 125.542 340.441 125.056V84.0833C340.44 83.5968 340.247 83.1303 339.903 82.7862C339.559 82.4421 339.092 82.2486 338.606 82.2481L173.46 82.2481Z" fill="#E6E6E6"/>
<path d="M199.12 115.457C206 115.457 211.578 109.879 211.578 102.997C211.578 96.1161 206 90.5377 199.12 90.5377C192.24 90.5377 186.662 96.1161 186.662 102.997C186.662 109.879 192.24 115.457 199.12 115.457Z" fill="#E6E6E6"/>
<path d="M227.891 94.6909C227.619 94.6905 227.348 94.7439 227.096 94.848C226.844 94.9522 226.614 95.1051 226.421 95.298C226.228 95.4908 226.075 95.7199 225.97 95.9721C225.866 96.2242 225.812 96.4945 225.812 96.7675C225.812 97.0405 225.866 97.3108 225.97 97.563C226.075 97.8151 226.228 98.0442 226.421 98.2371C226.614 98.43 226.844 98.5828 227.096 98.687C227.348 98.7912 227.619 98.8446 227.891 98.8441H325.774C326.324 98.8441 326.852 98.6253 327.242 98.2359C327.631 97.8465 327.85 97.3183 327.85 96.7675C327.85 96.2168 327.631 95.6886 327.242 95.2991C326.852 94.9097 326.324 94.6909 325.774 94.6909H227.891Z" fill="#E6E6E6"/>
<path d="M227.891 107.151C227.341 107.151 226.813 107.369 226.423 107.759C226.034 108.148 225.815 108.676 225.815 109.227C225.815 109.778 226.034 110.306 226.423 110.696C226.813 111.085 227.341 111.304 227.891 111.304H270.01C270.561 111.304 271.089 111.085 271.479 110.696C271.868 110.306 272.087 109.778 272.087 109.227C272.087 108.676 271.868 108.148 271.479 107.759C271.089 107.369 270.561 107.151 270.01 107.151H227.891Z" fill="#E6E6E6"/>
<path d="M136.579 107.991L106.051 124.224L105.664 110.696C115.629 109.032 125.109 106.136 133.874 101.42L137.067 93.5306C137.415 92.6709 137.981 91.9165 138.708 91.3414C139.436 90.7663 140.3 90.3903 141.217 90.2502C142.134 90.1102 143.071 90.2111 143.937 90.5428C144.803 90.8745 145.568 91.4258 146.156 92.1425C147.017 93.191 147.448 94.5277 147.36 95.8819C147.273 97.236 146.674 98.5063 145.685 99.4353L136.579 107.991Z" fill="#FFB8B8"/>
<path d="M61.9859 201.714C61.7632 200.897 61.7159 200.042 61.8472 199.206C61.9784 198.369 62.2852 197.57 62.7474 196.86L69.4537 186.567C71.0399 184.132 73.4737 182.374 76.2831 181.632C79.0924 180.891 82.077 181.22 84.6576 182.555C81.8391 187.353 82.232 191.563 85.631 195.221C80.3545 197.797 75.4779 201.122 71.1521 205.093C70.3624 205.631 69.4555 205.973 68.5069 206.09C67.5583 206.207 66.5955 206.096 65.6987 205.765C64.8019 205.435 63.9971 204.894 63.3513 204.19C62.7055 203.485 62.2373 202.636 61.9859 201.714Z" fill="#2F2E41"/>
<path d="M137.97 188.255C136.955 189.947 135.523 191.349 133.81 192.327C132.097 193.306 130.162 193.828 128.189 193.843L83.6375 194.18L81.7054 182.972L101.414 177.174L84.7969 164.42L102.959 143.162L135.948 173.914C137.876 175.711 139.129 178.116 139.497 180.727C139.865 183.337 139.326 185.994 137.97 188.255Z" fill="#2F2E41"/>
<path d="M76.6817 264.909H66.2478C56.8798 200.685 47.344 136.281 75.5223 112.242L108.756 117.653L104.505 145.868L85.9562 167.125L76.6817 264.909Z" fill="#2F2E41"/>
<path d="M85.8535 279.458C85.0367 279.681 84.182 279.728 83.3456 279.597C82.5092 279.466 81.71 279.159 81.0007 278.697L69.6717 277.174C67.2373 275.588 65.4789 273.153 64.7375 270.344C63.9962 267.534 64.3248 264.549 65.6597 261.968C70.4573 264.786 74.6659 264.393 78.3232 260.994C80.9073 266.212 85.165 265.894 89.2313 270.29C89.7697 271.08 90.1117 271.987 90.2286 272.936C90.3456 273.885 90.2342 274.848 89.9037 275.745C89.5732 276.642 89.0332 277.447 88.3287 278.093C87.6242 278.739 86.7756 279.207 85.8535 279.458Z" fill="#2F2E41"/>
<path d="M101.414 69.3407L82.0918 64.7027C85.3008 58.133 85.5651 50.8228 84.0239 43.0587L97.1628 42.6722C97.5745 52.3271 98.82 61.3471 101.414 69.3407Z" fill="#FFB8B8"/>
<path d="M106.724 129.29C92.6584 138.877 82.72 129.618 75.1359 115.334C76.1898 106.594 74.4834 96.1335 71.323 84.7679C69.9175 79.7549 70.4423 74.397 72.7936 69.752C75.145 65.107 79.1522 61.5125 84.024 59.6782L100.641 66.6353C114.75 78.138 117.528 90.5979 112.234 103.739L106.724 129.29Z" fill="#008001"/>
<path d="M66.2478 79.0032L50.7903 87.1197L78.2274 103.353L82.0451 112.771C82.2999 113.4 82.424 114.074 82.4099 114.752C82.3958 115.43 82.2437 116.098 81.963 116.716C81.6822 117.333 81.2787 117.887 80.7769 118.344C80.2752 118.8 79.6858 119.149 79.0446 119.37C78.3157 119.622 77.5386 119.701 76.7741 119.602C76.0095 119.503 75.2783 119.228 74.6377 118.799C73.997 118.37 73.4644 117.798 73.0815 117.129C72.6986 116.46 72.4757 115.711 72.4305 114.941L72.0444 108.377L37.1722 96.8675C35.9973 96.4797 34.926 95.8296 34.0395 94.9664C33.1529 94.1032 32.4744 93.0495 32.0554 91.8852C31.4445 90.1881 31.4134 88.3363 31.9669 86.6196C32.5205 84.9029 33.6274 83.4182 35.1146 82.3978L63.1563 63.1567L66.2478 79.0032Z" fill="#FFB8B8"/>
<path d="M81.7053 80.5492C75.2586 77.7235 69.3964 80.7931 61.997 83.2547L60.8377 62.7702C68.185 58.8536 75.1901 57.7976 81.7053 60.8378L81.7053 80.5492Z" fill="#008001"/>
<path d="M89.4171 52.8189C96.2302 52.8189 101.753 47.2949 101.753 40.4807C101.753 33.6664 96.2302 28.1424 89.4171 28.1424C82.6039 28.1424 77.0808 33.6664 77.0808 40.4807C77.0808 47.2949 82.6039 52.8189 89.4171 52.8189Z" fill="#FFB8B8"/>
<path d="M104.175 38.9239C91.9613 40.1203 82.6543 38.1225 76.7062 32.4339V27.8527H103.139L104.175 38.9239Z" fill="#2F2E41"/>
</g>
<defs>
<clipPath id="clip0_11_39087">
<rect width="411" height="286" fill="white"/>
</clipPath>
</defs>
</svg>
