<svg id="logo-87" width="375" height="62" viewBox="0 0 375 62" fill="none" xmlns="http://www.w3.org/2000/svg">
<defs id="SvgjsDefs8226"></defs><g id="SvgjsG8227" featurekey="nYIUkx-0" transform="matrix(26,0,0,26,-15,-38)" fill="#1890ff">
<g xmlns="http://www.w3.org/2000/svg">
<polygon fill="#1890ff" points="3.117,1.788 2.511,1.508 2.511,1.347 1.895,1.598 1.895,1.821 2.506,1.571 3.117,1.821  "></polygon
><polygon fill="#1890ff" points="3.117,2.154 2.511,1.92 2.511,1.758 1.895,1.967 1.895,2.188 2.506,1.982 3.117,2.188  "></polygon>
<polygon fill="#1890ff" points="3.117,2.521 2.511,2.327 2.511,2.17 1.895,2.333 1.895,2.554 2.506,2.393 3.117,2.554  "></polygon>
<polygon fill="#1890ff" points="3.117,2.89 2.511,2.757 2.511,2.599 1.895,2.7 1.895,2.921 2.506,2.819 3.117,2.921  "></polygon>
<polygon fill="#1890ff" points="1.895,3.066 1.895,3.287 2.506,3.236 3.117,3.287 3.117,3.257 2.511,3.171 2.511,3.013  "></polygon>
<polygon fill="#1890ff" points="3.117,3.653 3.117,3.623 2.511,3.587 2.511,3.434 1.895,3.434 1.895,3.653 2.506,3.653  "></polygon>
<polygon fill="#1890ff" points="3.818,1.758 3.2,1.967 3.2,2.188 3.811,1.982 4.421,2.188 4.421,2.154 3.818,1.92  "></polygon>
<polygon fill="#1890ff" points="3.818,2.17 3.2,2.333 3.2,2.554 3.811,2.393 4.421,2.554 4.421,2.521 3.818,2.327  "></polygon>
<polygon fill="#1890ff" points="3.818,2.599 3.2,2.7 3.2,2.921 3.811,2.819 4.421,2.921 4.421,2.89 3.818,2.757  "></polygon>
<polygon fill="#1890ff" points="3.818,3.013 3.2,3.066 3.2,3.287 3.811,3.236 4.421,3.287 4.421,3.257 3.818,3.171  "></polygon>
<polygon fill="#1890ff" points="3.818,3.434 3.2,3.434 3.2,3.653 3.811,3.653 4.421,3.653 4.421,3.623 3.818,3.587  "></polygon>
<polygon fill="#1890ff" points="1.195,2.17 0.579,2.333 0.579,2.554 1.189,2.393 1.8,2.554 1.8,2.521 1.195,2.327  "></polygon>
<polygon fill="#1890ff" points="1.195,2.599 0.579,2.7 0.579,2.921 1.189,2.819 1.8,2.921 1.8,2.89 1.195,2.757  "></polygon>
<polygon fill="#1890ff" points="1.195,3.013 0.579,3.066 0.579,3.287 1.189,3.236 1.8,3.287 1.8,3.257 1.195,3.171  "></polygon>
<polygon fill="#1890ff" points="1.195,3.434 0.579,3.434 0.579,3.653 1.189,3.653 1.8,3.653 1.8,3.623 1.195,3.587  "></polygon>
</g></g>
<g id="SvgjsG8228" featurekey="PXhRQw-0" transform="matrix(3.5622684370601587,0,0,3.5622684370601587,122.43516577408839,-14.877461004260088)" fill="#1890ff">
<path d="M15.26 12.219999999999999 l0 1.4 c0 3.96 -2.88 6.66 -7.08 6.66 c-4.3 0 -7.46 -3.16 -7.46 -7.3 c0 -4.12 3.18 -7.26 7.34 -7.26 c3.46 0 5.84 1.94 6.72 4.28 l-2.54 0.72 c-0.7 -1.44 -2 -2.42 -4.16 -2.42 c-2.74 0 -4.58 2.14 -4.58 4.66 s1.74 4.76 4.88 4.76 c2.36 0 3.8 -1.4 4.04 -3.14 l-4.3 0 l0 -2.36 l7.14 0 z M22.16 20.28 c-3.24 0 -5.5 -2.14 -5.5 -5.34 c0 -3.02 2.12 -5.34 5.3 -5.34 c3.32 0 5.22 2.3 5.22 5.2 c0 0.32 0 0.62 -0.06 0.94 l-7.86 0 c0.18 1.3 1.1 2.3 2.94 2.3 c1.28 0 2.06 -0.58 2.46 -1.34 l2.38 0.7 c-0.58 1.32 -2.22 2.88 -4.88 2.88 z M19.26 14.08 l5.34 0 c-0.12 -1.24 -1.08 -2.24 -2.66 -2.24 c-1.54 0 -2.54 1.08 -2.68 2.24 z M33.160000000000004 20.28 c-2.5 0 -4.42 -1.48 -4.92 -3.12 l2.38 -0.7 c0.34 0.96 1.3 1.68 2.64 1.68 c1.02 0 1.68 -0.48 1.68 -1.04 c0 -0.5 -0.38 -0.78 -1.12 -1 l-2.58 -0.76 c-1.44 -0.42 -2.5 -1.26 -2.5 -2.7 c0 -1.7 1.84 -3.04 4.06 -3.04 c2.18 0 3.84 1.04 4.48 2.56 l-2.34 0.68 c-0.36 -0.64 -1.1 -1.18 -2.16 -1.18 c-0.82 0 -1.44 0.44 -1.44 0.92 c0 0.4 0.28 0.64 0.84 0.8 l2.52 0.72 c1.52 0.44 2.84 1.06 2.84 2.88 c0 1.9 -1.8 3.3 -4.38 3.3 z M45.34 17.54 l0.64 2.14 c-0.8 0.32 -1.52 0.48 -2.36 0.48 c-2.32 0 -3.38 -1.44 -3.38 -3.62 l0 -4.34 l-1.7 0 l0 -2.32 l1.7 0 l0 -3.28 l2.66 0 l0 3.28 l2.96 0 l0 2.32 l-2.96 0 l0 4.34 c0 0.82 0.4 1.28 1.24 1.28 c0.46 0 0.8 -0.08 1.2 -0.28 z M54.14000000000001 8.52 c-1.12 0 -1.96 -1.02 -2.54 -1.02 c-0.32 0 -0.46 0.28 -0.46 0.96 l-1.74 0 c0 -1.74 0.54 -2.88 1.92 -2.88 c1.12 0 1.98 1.04 2.56 1.04 c0.32 0 0.46 -0.28 0.46 -0.96 l1.74 0 c0 1.72 -0.54 2.86 -1.94 2.86 z M52.18000000000001 20.28 c-2.8 0 -5 -2.28 -5 -5.34 c0 -3.08 2.2 -5.34 5 -5.34 c1.42 0 2.54 0.58 3.26 1.5 l0 -1.22 l2.66 0 l0 10.12 l-2.66 0 l0 -1.24 c-0.72 0.92 -1.84 1.52 -3.26 1.52 z M52.64000000000001 17.92 c1.6 0 2.88 -1.24 2.88 -3 c0 -1.74 -1.28 -2.96 -2.88 -2.96 c-1.66 0 -2.84 1.22 -2.84 2.96 c0 1.76 1.18 3 2.84 3 z M65.5 20.28 c-3.12 0 -5.42 -2.32 -5.42 -5.34 c0 -3.04 2.3 -5.34 5.42 -5.34 s5.4 2.3 5.4 5.34 c0 3.02 -2.28 5.34 -5.4 5.34 z M65.5 17.88 c1.68 0 2.84 -1.26 2.84 -2.94 s-1.16 -2.94 -2.84 -2.94 c-1.7 0 -2.84 1.26 -2.84 2.94 s1.14 2.94 2.84 2.94 z"></path></g>
</svg>