<svg id="logo-86" width="120" height="62" viewBox="0 0 120 62" fill="none" xmlns="http://www.w3.org/2000/svg">
    <g id="SvgjsG8417" featurekey="nYIUkx-0" transform="matrix(26.028110307501635,0,0,26.028110307501635,2.929724231245915,-37.05986465867172)" fill="#1890ff">
        <g xmlns="http://www.w3.org/2000/svg">
            <polygon fill="#1890ff" points="3.117,1.788 2.511,1.508 2.511,1.347 1.895,1.598 1.895,1.821 2.506,1.571 3.117,1.821  "></polygon><polygon fill="#1890ff" points="3.117,2.154 2.511,1.92 2.511,1.758 1.895,1.967 1.895,2.188 2.506,1.982 3.117,2.188  "></polygon><polygon fill="#1890ff" points="3.117,2.521 2.511,2.327 2.511,2.17 1.895,2.333 1.895,2.554 2.506,2.393 3.117,2.554  "></polygon><polygon fill="#1890ff" points="3.117,2.89 2.511,2.757 2.511,2.599 1.895,2.7 1.895,2.921 2.506,2.819 3.117,2.921  "></polygon><polygon fill="#1890ff" points="1.895,3.066 1.895,3.287 2.506,3.236 3.117,3.287 3.117,3.257 2.511,3.171 2.511,3.013  "></polygon><polygon fill="#1890ff" points="3.117,3.653 3.117,3.623 2.511,3.587 2.511,3.434 1.895,3.434 1.895,3.653 2.506,3.653  "></polygon><polygon fill="#1890ff" points="3.818,1.758 3.2,1.967 3.2,2.188 3.811,1.982 4.421,2.188 4.421,2.154 3.818,1.92  "></polygon><polygon fill="#1890ff" points="3.818,2.17 3.2,2.333 3.2,2.554 3.811,2.393 4.421,2.554 4.421,2.521 3.818,2.327  "></polygon><polygon fill="#1890ff" points="3.818,2.599 3.2,2.7 3.2,2.921 3.811,2.819 4.421,2.921 4.421,2.89 3.818,2.757  "></polygon><polygon fill="#1890ff" points="3.818,3.013 3.2,3.066 3.2,3.287 3.811,3.236 4.421,3.287 4.421,3.257 3.818,3.171  "></polygon><polygon fill="#1890ff" points="3.818,3.434 3.2,3.434 3.2,3.653 3.811,3.653 4.421,3.653 4.421,3.623 3.818,3.587  "></polygon><polygon fill="#1890ff" points="1.195,2.17 0.579,2.333 0.579,2.554 1.189,2.393 1.8,2.554 1.8,2.521 1.195,2.327  "></polygon><polygon fill="#1890ff" points="1.195,2.599 0.579,2.7 0.579,2.921 1.189,2.819 1.8,2.921 1.8,2.89 1.195,2.757  "></polygon><polygon fill="#1890ff" points="1.195,3.013 0.579,3.066 0.579,3.287 1.189,3.236 1.8,3.287 1.8,3.257 1.195,3.171  "></polygon><polygon fill="#1890ff" points="1.195,3.434 0.579,3.434 0.579,3.653 1.189,3.653 1.8,3.653 1.8,3.623 1.195,3.587  ">
            </polygon>
        </g>
    </g>
</svg>